<svg width="24" height="14" viewBox="0 0 24 14" fill="none" xmlns="http://www.w3.org/2000/svg">
<path fill-rule="evenodd" clip-rule="evenodd" d="M21.3624 9.75753C21.3624 9.75753 23.3028 11.6739 23.7828 12.5607C23.7922 12.5735 23.7994 12.5877 23.8044 12.6027C24 12.9303 24.048 13.1871 23.952 13.3767C23.79 13.6899 23.2416 13.8471 23.0556 13.8603H19.626C19.3872 13.8603 18.8904 13.7979 18.2856 13.3803C17.8236 13.0575 17.364 12.5259 16.9188 12.0063C16.254 11.2347 15.6792 10.5651 15.0972 10.5651C15.0237 10.565 14.9507 10.5771 14.8812 10.6011C14.4408 10.7403 13.8816 11.3679 13.8816 13.0395C13.8816 13.5627 13.4688 13.8603 13.1796 13.8603H11.6088C11.0736 13.8603 8.28722 13.6731 5.81642 11.0679C2.78882 7.87833 0.0696165 1.47993 0.0432165 1.42353C-0.125984 1.00953 0.229217 0.783927 0.613217 0.783927H4.07642C4.54082 0.783927 4.69202 1.06473 4.79762 1.31673C4.92002 1.60593 5.37362 2.76273 6.11762 4.06233C7.32242 6.17673 8.06282 7.03713 8.65442 7.03713C8.76556 7.03745 8.87483 7.00848 8.97122 6.95313C9.74402 6.52833 9.60002 3.76833 9.56402 3.19953C9.56402 3.08913 9.56282 1.96713 9.16682 1.42473C8.88362 1.03593 8.40122 0.884726 8.10962 0.829526C8.18762 0.716726 8.35322 0.543926 8.56562 0.441926C9.09482 0.177926 10.0512 0.139526 11.0004 0.139526H11.5272C12.5568 0.153926 12.8232 0.219926 13.1976 0.314726C13.9512 0.494726 13.9656 0.983127 13.8996 2.64633C13.8804 3.12153 13.86 3.65673 13.86 4.28673C13.86 4.42113 13.854 4.57113 13.854 4.72353C13.8312 5.57673 13.8012 6.53793 14.4036 6.93273C14.4817 6.9814 14.572 7.00718 14.664 7.00713C14.8728 7.00713 15.498 7.00713 17.1936 4.09713C17.9376 2.81193 18.5136 1.29633 18.5532 1.18233C18.5868 1.11873 18.6876 0.939926 18.81 0.867926C18.8971 0.821601 18.9946 0.798459 19.0932 0.800727H23.1672C23.6112 0.800727 23.9124 0.867927 23.9712 1.03593C24.0696 1.30833 23.952 2.13993 22.092 4.65513C21.7788 5.07393 21.504 5.43633 21.2628 5.75313C19.5768 7.96593 19.5768 8.07753 21.3624 9.75753Z" fill="white"/>
</svg>
