<svg width="24" height="16" viewBox="0 0 24 16" fill="none" xmlns="http://www.w3.org/2000/svg">
<path d="M22.8956 2.52373C22.7662 2.04276 22.5126 1.60423 22.1604 1.25203C21.8082 0.899828 21.3697 0.646312 20.8888 0.516851C19.1175 0.0374757 12 0.0374756 12 0.0374756C12 0.0374756 4.8825 0.0374757 3.11125 0.516851C2.63028 0.646312 2.19175 0.899828 1.83955 1.25203C1.48735 1.60423 1.23384 2.04276 1.10438 2.52373C0.773644 4.33013 0.613149 6.16358 0.625001 7.99997C0.613149 9.83637 0.773644 11.6698 1.10438 13.4762C1.23384 13.9572 1.48735 14.3957 1.83955 14.7479C2.19175 15.1001 2.63028 15.3536 3.11125 15.4831C4.8825 15.9625 12 15.9625 12 15.9625C12 15.9625 19.1175 15.9625 20.8888 15.4831C21.3697 15.3536 21.8082 15.1001 22.1604 14.7479C22.5126 14.3957 22.7662 13.9572 22.8956 13.4762C23.2264 11.6698 23.3869 9.83637 23.375 7.99997C23.3869 6.16358 23.2264 4.33013 22.8956 2.52373ZM9.725 11.4125V4.58747L15.6319 7.99997L9.725 11.4125Z" fill="white"/>
</svg>
